<?xml version="1.0" encoding="UTF-8"?>
<svg width="234px" height="280px" viewBox="0 0 234 280" version="1.1" xmlns="http://www.w3.org/2000/svg" xmlns:xlink="http://www.w3.org/1999/xlink">
    <!-- Generator: sketchtool 40.3 (33839) - http://www.bohemiancoding.com/sketch -->
    <title>EBB70B21-312B-44DE-9A72-26E23A0A87CD</title>
    <desc>Created with sketchtool.</desc>
    <defs>
        <path d="M1.3541145,500.226521 C-0.175725725,496.023319 1.99779615,491.373465 6.19816641,489.844655 L37.394495,478.49012 C41.5996312,476.959576 46.2518612,479.134745 47.7785885,483.329394 C49.3084287,487.532596 47.1349068,492.18245 42.9345366,493.711259 L11.7382079,505.065794 C7.53307172,506.596339 2.88084181,504.42117 1.3541145,500.226521 Z M0.491380287,521.527951 C-1.03845994,517.324749 1.12209863,512.679613 5.33100537,511.147697 L60.1289531,491.202875 C64.3316445,489.67322 68.9818924,491.849111 70.5086197,496.04376 C72.0384599,500.246961 69.8779014,504.892097 65.6689946,506.424014 L10.8710469,526.368836 C6.66835555,527.89849 2.0181076,525.722599 0.491380287,521.527951 Z M0.491380287,542.585348 C-1.03845994,538.382146 1.12209863,533.737011 5.33100537,532.205094 L60.1289531,512.260272 C64.3316445,510.730617 68.9818924,512.906508 70.5086197,517.101157 C72.0384599,521.304358 69.8779014,525.949494 65.6689946,527.481411 L10.8710469,547.426233 C6.66835555,548.955887 2.0181076,546.779997 0.491380287,542.585348 Z M0.491380287,564.452645 C-1.03845994,560.249443 1.12209863,555.604308 5.33100537,554.072391 L60.1289531,534.127569 C64.3316445,532.597914 68.9818924,534.773805 70.5086197,538.968454 C72.0384599,543.171655 69.8779014,547.816791 65.6689946,549.348708 L10.8710469,569.29353 C6.66835555,570.823184 2.0181076,568.647294 0.491380287,564.452645 Z M14.4426029,583.296645 C14.4426029,586.427713 16.6238957,588.965944 19.3146569,588.965944 L54.1150428,588.965944 C56.8058039,588.965944 58.9870968,586.427713 58.9870968,583.296645 L58.9870968,555.760049 L49.2429888,559.809548 L49.2429888,577.637984 L24.1867109,577.637984 L24.1867109,568.884789 L14.4426029,572.124389 L14.4426029,583.296645 Z M37.1197998,601.114443 C41.5927534,601.114443 45.2187987,597.488397 45.2187987,593.015444 L29.0208009,593.015444 C29.0208009,597.488397 32.6468462,601.114443 37.1197998,601.114443 Z" id="path-1"></path>
        <filter x="-50%" y="-50%" width="200%" height="200%" filterUnits="objectBoundingBox" id="filter-2">
            <feMorphology radius="2.5" operator="dilate" in="SourceAlpha" result="shadowSpreadOuter1"></feMorphology>
            <feOffset dx="0" dy="0" in="shadowSpreadOuter1" result="shadowOffsetOuter1"></feOffset>
            <feGaussianBlur stdDeviation="40" in="shadowOffsetOuter1" result="shadowBlurOuter1"></feGaussianBlur>
            <feColorMatrix values="0 0 0 0 1   0 0 0 0 1   0 0 0 0 1  0 0 0 1 0" type="matrix" in="shadowBlurOuter1"></feColorMatrix>
        </filter>
    </defs>
    <g id="Landing-Page" stroke="none" stroke-width="1" fill="none" fill-rule="evenodd">
        <g id="desktop-v3" transform="translate(-621.000000, -349.000000)">
            <g id="Header" transform="translate(0.000000, -50.000000)">
                <g id="ampoules" transform="translate(703.000000, 0.000000)">
                    <g id="ampoule">
                        <use fill="black" fill-opacity="1" filter="url(#filter-2)" xlink:href="#path-1"></use>
                        <use fill="#FFFFFF" fill-rule="evenodd" xlink:href="#path-1"></use>
                    </g>
                </g>
            </g>
        </g>
    </g>
</svg>