<?xml version="1.0" encoding="UTF-8"?>
<svg width="544px" height="523px" viewBox="0 0 544 523" version="1.1" xmlns="http://www.w3.org/2000/svg" xmlns:xlink="http://www.w3.org/1999/xlink">
    <!-- Generator: sketchtool 40.3 (33839) - http://www.bohemiancoding.com/sketch -->
    <title>FE234F78-BA4D-47B6-90A5-7954F17151D3</title>
    <desc>Created with sketchtool.</desc>
    <defs></defs>
    <g id="Landing-Page" stroke="none" stroke-width="1" fill="none" fill-rule="evenodd">
        <g id="desktop-v3" transform="translate(-217.000000, -2652.000000)" fill="#FAF5EB">
            <g id="partenaires" transform="translate(217.000000, 2652.000000)">
                <path d="M361.330816,240.502974 C356.271139,244.968437 353.775793,250.978515 353.786405,256.38268 C353.803651,260.353601 355.046681,263.904227 357.547334,266.74685 L372.271338,283.370357 C375.252222,286.734039 379.47481,288.494768 384.355395,288.522611 C389.166996,288.526588 394.417704,286.692938 398.779585,282.828085 L473.438336,216.863068 C478.509951,212.390976 481.005298,206.390179 480.999992,200.995295 C480.982746,197.0257 479.734409,193.484355 477.209877,190.620519 L462.515059,174.00364 C459.523562,170.634656 455.294341,168.876578 450.419063,168.84741 C445.619401,168.844758 440.36206,170.682386 436.001505,174.536632 L361.330816,240.502974 Z M214.882632,115.807707 C217.880762,119.054714 221.981302,120.746499 227.019753,120.783623 C232.113921,120.792904 238.017319,118.875724 243.36089,114.733769 L316.390567,47.9546806 C320.249665,43.6761625 322.386828,37.8715911 322.364276,32.5920563 C322.352336,28.1637172 320.988585,24.2909093 318.267715,21.314376 L303.27839,4.94410568 C300.304139,1.70637991 296.17972,0.0291796275 291.431796,1.09269368e-05 C286.544578,-0.00529247317 281.171823,1.91984177 276.776776,5.92921225 L203.237682,73.1564379 C195.040581,80.713783 193.654278,85.5531356 193.660911,88.3281397 C193.666217,90.1299699 194.208799,91.774024 195.335088,93.6792705 C196.45607,95.5619775 198.13688,97.5123029 199.922492,99.4467181 L208.950048,109.318997 C208.973927,109.348166 208.99648,109.368054 209.020358,109.402526 L209.060157,109.442301 L207.668547,110.721747 L203.416773,114.863702 L209.204757,109.590797 L214.882632,115.807707 Z M254.040203,145.169319 C254.052143,149.144218 255.299153,152.692192 257.818378,155.544096 L272.513196,172.167603 C275.49408,175.527307 279.733914,177.29334 284.614499,177.313227 C289.4261,177.317205 294.671501,175.486206 299.021443,171.627982 L373.680194,105.644404 C378.763749,101.172312 381.253789,95.1741664 381.24185,89.7912153 C381.224604,85.8229461 379.9829,82.2855782 377.458369,79.4217422 L362.76355,62.8022121 C359.76542,59.4372047 355.537526,57.6724983 350.655615,57.6446555 C345.855953,57.6406779 340.605245,59.4769802 336.249997,63.324597 L261.57798,129.296243 C256.518304,133.761706 254.022957,139.76648 254.040203,145.169319 Z M356.037258,397.524321 C360.056876,394.201741 365.01971,390.76116 369.652219,387.006353 C374.272789,383.288669 378.443639,379.25676 380.627233,375.723369 C382.105072,373.347446 382.683473,371.407727 382.683473,369.739808 C382.678166,368.636701 382.475196,367.540223 381.799953,366.113608 C379.425328,361.599089 376.998965,360.073036 371.333029,359.127704 C361.64615,357.884057 352.432869,356.002676 343.467664,354.740467 C339.649691,354.194216 335.986931,353.564438 333.098909,353.575045 C330.557131,353.577696 328.945304,354.019204 327.853507,354.715276 L210.963571,450.689581 L204.76036,455.77289 L198.359485,447.967611 L186.633612,435.69024 L186.547382,435.76051 C186.148074,435.288508 185.628044,434.702482 185.068216,434.039557 C138.192582,379.5922 92.6873321,327.608272 42.2709856,273.514916 L42.1489378,273.383657 L42.0162772,273.221904 C37.3492762,267.677199 32.3811355,261.195118 28.8231774,253.497233 C14.3711282,275.278297 8.06311513,301.52615 3.81134189,321.843476 C1.22445957,334.018757 1.93976166e-06,346.110509 1.93976166e-06,357.970237 C-0.0119375171,437.271979 55.0939623,506.335507 129.638624,519.44286 C135.616312,520.500889 141.872588,520.999408 148.296016,520.999408 C185.710294,521.117409 228.742749,503.564481 254.095523,484.27734 L254.107462,484.287947 L267.086978,473.21047 C296.106491,447.06073 326.219128,422.346885 356.037258,397.524321 Z M424.13143,160.955818 C429.203046,156.487703 431.698392,150.486906 431.686453,145.094674 C431.663901,141.130382 430.422197,137.598318 427.897665,134.734482 L413.202847,118.122907 C410.210023,114.75127 405.982129,112.985238 401.106851,112.968002 C396.300556,112.956069 391.056481,114.793697 386.6946,118.638662 L312.034523,184.624892 C306.964233,189.087704 304.46756,195.09513 304.484806,200.492666 C304.491439,204.467564 305.745082,208.006258 308.257675,210.858161 L322.957799,227.481669 C325.933377,230.841373 330.173211,232.608731 335.060429,232.628618 C339.865397,232.628618 345.122738,230.801597 349.466047,226.944699 L424.119491,160.965099 L425.726011,162.777536 L425.726011,162.774884 L424.13143,160.955818 Z M319.463777,343.095158 L319.424061,343.03934 C319.960225,342.600772 320.461967,342.252575 320.927966,341.948235 C325.538969,338.882241 330.582875,338.132688 334.878799,338.132688 L334.911896,338.132688 C339.766489,338.147307 344.083596,339.00318 347.43296,339.455039 C357.013733,340.817259 366.144393,342.689814 375.055293,343.827435 C384.266708,344.806905 393.271602,350.169403 397.571498,359.578694 C399.197198,362.954343 400.015343,366.539974 400.004752,369.996692 C400.004752,375.413679 398.095746,380.260527 395.553936,384.313964 C393.00021,388.39664 389.75543,391.87728 386.365026,395.023013 C379.60937,401.252017 372.013063,406.327452 367.782007,409.887832 C337.955449,434.831755 308.033573,459.501905 279.493806,485.341571 C279.096648,485.715019 278.784217,485.988792 278.60682,486.161561 L278.60682,486.156245 L278.58299,486.134981 L272.58723,491.272879 C296.048671,508.390346 326.652335,516.014795 348.642968,520.050955 C359.352993,522.044449 369.966376,522.999997 380.393095,522.999997 C461.429193,523.014616 531.282649,465.340183 542.661223,388.942857 C543.561447,382.93048 543.999645,376.84235 543.999645,370.70106 C544.102906,327.0781 521.691285,280.855625 490.678549,249.766425 L490.493208,249.951155 L484.752953,244.135469 L484.672197,244.074336 L475.87515,235.180695 L408.915651,294.608074 C401.745627,300.980609 392.885035,304.245952 384.187277,304.251268 C375.419354,304.271202 366.605096,300.831761 360.437234,293.800044 L345.73842,277.134436 C340.550214,271.24034 338.060034,263.760751 338.071949,256.371534 C338.077244,253.54476 338.469107,250.720644 339.154866,247.9457 C337.766137,248.114483 336.377408,248.226119 334.987356,248.226119 C326.220757,248.25004 317.406499,244.80927 311.220103,237.774895 L296.555709,221.123906 C291.350293,215.227152 288.854818,207.748892 288.872028,200.355688 C288.872028,197.676432 289.21226,194.994519 289.834474,192.357791 C288.105513,192.618274 286.376552,192.780412 284.647592,192.780412 C275.884964,192.804334 267.065411,189.366221 260.880339,182.338491 L246.221241,165.675541 C241.010529,159.776129 238.520349,152.293882 238.532264,144.895362 C238.532264,141.142278 239.159773,137.389194 240.364486,133.76768 C236.035464,135.303999 231.580677,136.108042 227.176196,136.117345 C218.449313,136.147912 209.738316,132.846686 203.547948,126.032924 L197.997005,119.934162 C197.98509,119.914227 197.973175,119.904924 197.938755,119.870371 C192.231596,114.040066 186.974549,109.605207 182.536971,106.812986 C178.09145,103.979567 174.581898,102.95624 172.540507,103.001426 C170.857881,103.06256 169.957657,103.360255 168.476258,104.613498 L152.019358,119.494265 C150.786845,120.576067 149.685393,122.75562 149.650973,127.202441 C149.511968,135.9778 155.050997,150.895779 164.459667,164.72398 L164.672809,165.026991 L167.023984,169.382111 L261.186151,274.41664 L261.387377,274.235896 L263.030287,276.075227 L262.82906,276.249325 L265.388081,279.104008 L265.382786,279.104008 L253.79107,289.584469 L154.83256,179.202061 L153.466337,177.692322 C147.270673,170.78553 140.491188,165.331331 134.172406,161.725766 C127.872158,158.085646 122.015402,156.413769 118.170914,156.454968 C115.340502,156.482877 113.836597,157.160665 112.815902,158.063053 L96.3470873,172.951794 C95.1595851,174.022964 94.1216792,176.016458 94.0872588,180.012749 C93.9667876,187.441835 98.6876712,199.834722 107.737576,211.124541 C107.795826,211.185675 107.864666,211.286679 107.933507,211.358445 C108.204898,211.65614 108.46967,211.981744 108.717232,212.325954 C109.507576,213.262896 110.296597,214.182561 111.080322,215.062356 L211.912094,326.700665 L200.348179,337.224984 L99.4713961,225.536172 C98.4334901,224.367985 97.4432431,223.207772 96.4847687,222.067493 L96.0929062,221.593042 C92.0299809,217.455878 87.6307952,213.334662 83.273973,210.421503 C78.7768217,207.388734 74.5457662,205.772675 70.7767377,205.789952 C68.4361538,205.807229 66.1074846,206.32155 63.3167884,207.847238 L63.0983516,207.970834 L62.8441705,208.081141 C57.3567722,210.627497 51.8336296,214.322105 48.0182661,218.63071 C44.1684821,222.993803 42.0238295,227.585484 42,232.979878 C42,233.111449 42,233.288205 42.0066193,233.514135 C42.0344204,234.219831 42.0979656,234.937489 42.1734256,235.649831 C43.245752,245.716974 49.2123875,254.68238 56.2500255,263.040435 C106.64142,317.347193 152.094818,369.511609 198.861485,424.069546 L208.724239,434.430398 L319.463777,343.095158 Z" id="big-logo"></path>
            </g>
        </g>
    </g>
</svg>