<?xml version="1.0" encoding="UTF-8"?>
<svg width="418px" height="234px" viewBox="0 0 418 234" version="1.1" xmlns="http://www.w3.org/2000/svg" xmlns:xlink="http://www.w3.org/1999/xlink">
    <!-- Generator: sketchtool 40.3 (33839) - http://www.bohemiancoding.com/sketch -->
    <title>F84A5888-62E8-4B48-A2D0-63064FE4FD81</title>
    <desc>Created with sketchtool.</desc>
    <defs></defs>
    <g id="Landing-Page" stroke="none" stroke-width="1" fill="none" fill-rule="evenodd">
        <g id="desktop-v3" transform="translate(-306.000000, -1111.000000)" fill="#FAF5EB">
            <g id="Email" transform="translate(237.000000, 1111.000000)">
                <path d="M357.424933,151.62843 L357.424933,97.1159748 C357.424933,58.7193444 330.725614,26.6280348 294.907471,18.198664 C294.690277,8.10524989 286.4781,-7.10542736e-14 276.351272,-7.10542736e-14 C266.216646,-7.10542736e-14 257.967714,8.14089205 257.754975,18.198664 C221.936832,26.6280348 195.236399,58.7193444 195.236399,97.1159748 L195.236399,151.62843 C181.741386,151.62843 170.811495,162.55498 170.811495,176.049993 L170.811495,193.280749 L381.846495,193.280749 L381.846495,176.049993 C381.846495,162.55498 370.92106,151.62843 357.424933,151.62843 Z M276.35116,233.439105 C292.519335,233.439105 306.04999,222.549311 310.309228,207.706579 L242.341857,207.706579 C246.611119,222.549311 260.142888,233.439105 276.35116,233.439105 Z M129.140687,95.8586976 C129.140687,80.8299582 133.33421,66.1910549 141.267932,53.5236085 C143.87872,49.352362 142.615651,43.8545589 138.445518,41.241543 C134.273158,38.629641 128.775355,39.8927101 126.163453,44.0650704 C116.452078,59.5705237 111.319607,77.480709 111.319607,95.8586976 C111.319607,114.724538 116.70937,133.037925 126.906369,148.819606 C128.61051,151.457125 131.474135,152.895064 134.397905,152.895064 C136.055266,152.895064 137.730447,152.432829 139.226304,151.46715 C143.359681,148.797329 144.544783,143.280591 141.873848,139.147214 C133.543607,126.255891 129.140687,111.286184 129.140687,95.8586976 Z M87.9348974,95.8586976 C87.9348974,73.0800161 94.2914538,50.8883163 106.317341,31.684989 C109.092974,27.2531092 107.749711,21.4111364 103.317831,18.6355032 C98.8848371,15.8587562 93.0439782,17.2042477 90.2694588,21.6350137 C76.3545369,43.8556727 69,69.5213692 69,95.8586976 C69,122.899959 76.7232105,149.145954 91.3353822,171.759791 C93.1475632,174.562155 96.1905126,176.089199 99.2958358,176.089199 C101.056781,176.089199 102.836662,175.599119 104.426079,174.57218 C108.817862,171.735287 110.076475,165.874379 107.239582,161.482597 C94.6100056,141.938441 87.9348974,119.246637 87.9348974,95.8586976 Z M417.551474,41.2425455 C413.381342,43.8544475 412.119387,49.3533645 414.730175,53.5234972 C422.663897,66.1898297 426.85742,80.828733 426.85742,95.8585862 C426.85742,111.286072 422.454499,126.254666 414.125372,139.148217 C411.453324,143.281594 412.639539,148.797218 416.775144,151.468152 C418.269887,152.433832 419.943954,152.894952 421.600201,152.894952 C424.523972,152.894952 427.388711,151.457014 429.093965,148.81838 C439.288737,133.037814 444.6785,114.724427 444.6785,95.8585862 C444.6785,77.4794838 439.544915,59.5681847 429.83354,44.0638452 C427.221638,39.8937125 421.721607,38.6284158 417.551474,41.2425455 Z M465.730541,21.6353479 C462.954908,17.2034681 457.111821,15.861318 452.682169,18.6358374 C448.249176,21.4103567 446.907026,27.2523295 449.682659,31.6842093 C461.708546,50.8897643 468.065103,73.081464 468.065103,95.8590317 C468.065103,119.244744 461.388881,141.937661 448.75819,161.482931 C445.921297,165.874713 447.181025,171.734507 451.572807,174.572514 C453.161111,175.599454 454.939877,176.089533 456.70305,176.089533 C459.80726,176.089533 462.850209,174.56249 464.66239,171.759011 C479.274562,149.145174 487,122.899179 487,95.8590317 C487,69.5228171 479.644349,43.8571207 465.730541,21.6353479 Z" id="big-bell"></path>
            </g>
        </g>
    </g>
</svg>