<?xml version="1.0" encoding="UTF-8"?>
<svg width="23px" height="18px" viewBox="0 0 23 18" version="1.1" xmlns="http://www.w3.org/2000/svg" xmlns:xlink="http://www.w3.org/1999/xlink">
    <!-- Generator: sketchtool 40.3 (33839) - http://www.bohemiancoding.com/sketch -->
    <title>E6329BCD-CA62-4B5D-8C1B-A42779D9CC40</title>
    <desc>Created with sketchtool.</desc>
    <defs></defs>
    <g id="Symbols" stroke="none" stroke-width="1" fill="none" fill-rule="evenodd">
        <g id="Identité" transform="translate(-76.000000, -180.000000)" fill="#FFFFFF">
            <g id="Social">
                <g transform="translate(42.000000, 179.000000)">
                    <path d="M56.5489977,3.13080503 C55.7340565,3.49221795 54.8583532,3.73656258 53.9390633,3.84633942 C54.877311,3.28400652 55.5978684,2.39339629 55.9370829,1.33232813 C55.0591112,1.85309977 54.0865936,2.23120201 53.0515317,2.43503857 C52.2226557,1.55188182 51.0416027,1 49.7347316,1 C47.2250142,1 45.1904563,3.03463889 45.1904563,5.54403226 C45.1904563,5.90026015 45.2306403,6.24700915 45.3080917,6.57958034 C41.5315252,6.39008363 38.1832099,4.58099362 35.9419799,1.83179253 C35.550753,2.50293008 35.3267434,3.28352042 35.3267434,4.11628514 C35.3267434,5.69277786 36.1289651,7.08366265 37.3482577,7.89860382 C36.6033955,7.87502813 35.902687,7.67054344 35.2900431,7.33019471 C35.2897191,7.34915248 35.289638,7.36819127 35.289638,7.38731107 C35.289638,9.58900521 36.8560037,11.4256407 38.9347964,11.8431168 C38.5534535,11.9468984 38.1520187,12.0023945 37.7376212,12.0023945 C37.4447479,12.0023945 37.1601383,11.9739578 36.882658,11.9209733 C37.4609511,13.7262555 39.1390381,15.040094 41.1274978,15.0767943 C39.5723123,16.2955198 37.6130184,17.0219104 35.4839957,17.0219104 C35.1172357,17.0219104 34.7554987,17.0004411 34.4,16.9584747 C36.4110632,18.2477653 38.7995805,19 41.3657662,19 C49.7241185,19 54.2947241,12.0758761 54.2947241,6.07096112 C54.2947241,5.87392991 54.2902682,5.67795191 54.2815994,5.48310814 C55.1693741,4.84243264 55.9397564,4.04207437 56.5489977,3.13080503" id="icon-twitter"></path>
                </g>
            </g>
        </g>
    </g>
</svg>