<?xml version="1.0" encoding="UTF-8"?>
<svg width="144px" height="150px" viewBox="0 0 144 150" version="1.1" xmlns="http://www.w3.org/2000/svg" xmlns:xlink="http://www.w3.org/1999/xlink">
    <!-- Generator: sketchtool 40.3 (33839) - http://www.bohemiancoding.com/sketch -->
    <title>C831F6D7-45E5-46CD-8FA7-2B87EBA842B3</title>
    <desc>Created with sketchtool.</desc>
    <defs>
        <polygon id="path-1" points="0 23.5299892 143.586973 23.5299892 143.586973 9.72972973e-05 0 9.72972973e-05"></polygon>
        <polygon id="path-3" points="0.0210346112 20.78125 19.5333854 20.78125 19.5333854 0.306276042 0.0210346112 0.306276042 0.0210346112 20.78125"></polygon>
        <polygon id="path-5" points="0 0.106776042 0 9.75681012 9.36823698 9.75681012 9.36823698 0.106776042 2.682271e-20 0.106776042"></polygon>
    </defs>
    <g id="Symbols" stroke="none" stroke-width="1" fill="none" fill-rule="evenodd">
        <g id="Identité">
            <g id="Logo">
                <g>
                    <g id="logo__baseline" transform="translate(0.000000, 126.000000)">
                        <path d="M3.15408649,12.6134757 L3.15408649,14.8406108 C3.15408649,15.3168811 3.15408649,15.5012595 3.23387027,15.7415838 C3.44500541,16.4294757 4.05505946,16.5092595 4.31970811,16.5092595 C4.82273514,16.5092595 5.16814054,16.2441243 5.32722162,15.7659081 C5.45905946,15.3966649 5.43278919,14.4159081 5.43278919,14.2286108 L8.48014054,14.2286108 L8.48014054,15.3168811 C8.48014054,15.7926649 8.48014054,16.0845568 8.34732973,16.5360162 C7.81705946,18.4425568 6.12165405,18.9738 4.31970811,18.9738 C1.53651892,18.9738 0.609762162,17.5941243 0.238572973,16.3759622 C0.0537081081,15.714827 0.000194594594,14.7598541 0.000194594594,14.6022324 L0.000194594594,8.87823243 C0.000194594594,8.66466486 0.0269513514,7.76369189 0.3456,7.04855676 C1.00819459,5.45969189 2.75662703,4.87639459 4.34597838,4.87639459 C6.54538378,4.87639459 7.76500541,5.9885027 8.16197838,6.81066486 C8.40035676,7.28742162 8.53219459,7.71115135 8.53219459,8.74444865 L8.53219459,12.6134757 L3.15408649,12.6134757 L3.15408649,12.6134757 Z M4.58484324,3.49817838 L2.2788973,3.49817838 L4.05505946,0.000827027027 L8.10943784,0.000827027027 L4.58484324,3.49817838 L4.58484324,3.49817838 Z M5.40603243,8.71817838 C5.40603243,8.42677297 5.45905946,7.36671892 4.31970811,7.36671892 C3.18084324,7.36671892 3.15408649,8.37325946 3.15408649,8.71817838 L3.15408649,10.3873135 L5.40603243,10.3873135 L5.40603243,8.71817838 L5.40603243,8.71817838 Z" id="Fill-1" fill="#FCEE00"></path>
                        <path d="M16.2431514,18.7069135 L16.2431514,8.71788649 C16.2431514,7.8714 16.1910973,7.52502162 15.7668811,7.26085946 C15.6603405,7.18107568 15.4745027,7.10177838 15.1573135,7.10177838 C13.6730432,7.10177838 13.8058541,8.66485946 13.8058541,8.93145405 L13.8058541,18.7069135 L10.6524486,18.7069135 L10.6524486,5.14172432 L13.8588811,5.14172432 L13.8311514,6.12199459 C14.6538,5.32561622 15.3159081,4.8761027 16.5345568,4.8761027 C17.7799622,4.8761027 18.9455838,5.51242703 19.2642324,6.78361622 C19.3693135,7.15529189 19.3693135,7.39318378 19.3693135,8.10929189 L19.3693135,18.7069135 L16.2431514,18.7069135 Z" id="Fill-3" fill="#FCEE00"></path>
                        <path d="M24.6960973,12.6134757 L24.6960973,14.8406108 C24.6960973,15.3168811 24.6960973,15.5012595 24.7763676,15.7415838 C24.9870162,16.4294757 25.5965838,16.5092595 25.8612324,16.5092595 C26.3647459,16.5092595 26.7096649,16.2441243 26.8682595,15.7659081 C27.0010703,15.3966649 26.9743135,14.4159081 26.9743135,14.2286108 L30.0221514,14.2286108 L30.0221514,15.3168811 C30.0221514,15.7926649 30.0221514,16.0845568 29.8893405,16.5360162 C29.3595568,18.4425568 27.6626919,18.9738 25.8612324,18.9738 C23.0795027,18.9738 22.1522595,17.5941243 21.7810703,16.3759622 C21.5952324,15.714827 21.5422054,14.7598541 21.5422054,14.6022324 L21.5422054,8.87823243 C21.5422054,8.66466486 21.5699351,7.76369189 21.8866378,7.04855676 C22.5497189,5.45969189 24.2986378,4.87639459 25.8879892,4.87639459 C28.0878811,4.87639459 29.3060432,5.9885027 29.7035027,6.81066486 C29.9423676,7.28742162 30.0751784,7.71115135 30.0751784,8.74444865 L30.0751784,12.6134757 L24.6960973,12.6134757 Z M26.9480432,8.71817838 C26.9480432,8.42677297 27.0010703,7.36671892 25.8612324,7.36671892 C24.7223676,7.36671892 24.6960973,8.37325946 24.6960973,8.71817838 L24.6960973,10.3873135 L26.9480432,10.3873135 L26.9480432,8.71817838 Z" id="Fill-5" fill="#FCEE00"></path>
                        <path d="M38.3946811,8.02941081 C38.1563027,7.92384324 37.8916541,7.81681622 37.3613838,7.81681622 C37.1765189,7.81681622 36.6452757,7.81681622 36.1685189,8.13546486 C35.2943027,8.74454595 35.3215459,9.8046 35.3215459,10.7065459 L35.3215459,18.7087622 L32.1939243,18.7087622 L32.1939243,5.14114054 L35.3463568,5.14114054 L35.3215459,6.86281622 C35.4003568,6.73146486 35.5321946,6.41232973 35.7978162,6.0678973 C36.6720324,4.90276216 37.8648973,4.87649189 38.4214378,4.90276216 L38.3946811,8.02941081 Z" id="Fill-7" fill="#FCEE00"></path>
                        <path d="M48.5959135,20.0590054 C48.5681838,20.5357622 48.4631027,21.8881946 47.2181838,22.7356541 C46.6879135,23.1073297 45.6015892,23.5300865 44.0122378,23.5300865 C43.4552108,23.5300865 43.1905622,23.4785189 42.925427,23.4522486 C42.475427,23.3724649 40.6729946,23.1336 40.0629405,21.4897622 C39.8790486,20.9609514 39.8513189,20.3771676 39.8513189,19.8216 L42.9784541,19.8216 C42.9784541,19.874627 42.9521838,20.2176 43.0314811,20.4569514 C43.1112649,20.7488432 43.4026703,21.2513838 44.1966162,21.2513838 C44.5678054,21.2513838 44.7799135,21.1448432 44.9127243,21.0670054 C45.4434811,20.7756 45.4697514,20.164573 45.4697514,19.6343027 L45.4697514,17.5409514 C45.0445622,18.0191676 44.329427,18.8676 42.7138054,18.8676 C41.9184,18.8676 41.3618595,18.6024649 41.0967243,18.4701405 C39.8513189,17.8060865 39.7720216,16.6667351 39.7720216,15.4743568 L39.7720216,8.2943027 C39.7720216,7.76403243 39.7987784,7.31354595 39.9578595,6.81051892 C40.1689946,6.17419459 40.8330486,4.87624865 42.6598054,4.87624865 C43.879427,4.87624865 44.6218054,5.43327568 45.4697514,6.22770811 L45.4697514,5.1408973 L48.649427,5.1408973 L48.649427,19.1847892 C48.649427,19.4766811 48.6221838,19.7680865 48.5959135,20.0590054 L48.5959135,20.0590054 Z M45.4434811,8.90387027 C45.4434811,8.63824865 45.5490486,7.26100541 44.1713189,7.26100541 C44.0638054,7.26100541 43.6935892,7.26100541 43.4026703,7.4988973 C43.0582378,7.76403243 42.8986703,8.08268108 42.8986703,8.87808649 L42.8986703,14.9187892 C42.8986703,15.2899784 42.9521838,15.5541405 43.0042378,15.7146811 C43.2431027,16.402573 43.9319676,16.4293297 44.1450486,16.4293297 C45.4697514,16.4293297 45.4434811,15.2637081 45.4434811,14.9187892 L45.4434811,8.90387027 Z" id="Fill-9" fill="#FCEE00"></path>
                        <mask id="mask-2" fill="white">
                            <use xlink:href="#path-1"></use>
                        </mask>
                        <g id="Clip-13"></g>
                        <path d="M50.9803784,3.18025946 L54.1605405,3.18025946 L54.1605405,9.72972973e-05 L50.9803784,9.72972973e-05 L50.9803784,3.18025946 Z M50.9803784,18.7069622 L54.1605405,18.7069622 L54.1605405,5.1408 L50.9803784,5.1408 L50.9803784,18.7069622 Z" id="Fill-12" fill="#FCEE00" mask="url(#mask-2)"></path>
                        <path d="M59.485573,12.6134757 L59.485573,14.8406108 C59.485573,15.3168811 59.485573,15.5012595 59.5658432,15.7415838 C59.7764919,16.4294757 60.3860595,16.5092595 60.6516811,16.5092595 C61.1551946,16.5092595 61.499627,16.2441243 61.6577351,15.7659081 C61.7905459,15.3966649 61.7647622,14.4159081 61.7647622,14.2286108 L64.811627,14.2286108 L64.811627,15.3168811 C64.811627,15.7926649 64.811627,16.0845568 64.6797892,16.5360162 C64.1490324,18.4425568 62.4531405,18.9738 60.6516811,18.9738 C57.8684919,18.9738 56.9412486,17.5941243 56.5705459,16.3759622 C56.3856811,15.714827 56.3316811,14.7598541 56.3316811,14.6022324 L56.3316811,8.87823243 C56.3316811,8.66466486 56.3594108,7.76369189 56.6766,7.04855676 C57.3396811,5.45969189 59.0881135,4.87639459 60.6784378,4.87639459 C62.8773568,4.87639459 64.0964919,5.9885027 64.4939514,6.81066486 C64.7313568,7.28742162 64.8641676,7.71115135 64.8641676,8.74444865 L64.8641676,12.6134757 L59.485573,12.6134757 Z M61.7380054,8.71817838 C61.7380054,8.42677297 61.7905459,7.36671892 60.6516811,7.36671892 C59.5118432,7.36671892 59.485573,8.37325946 59.485573,8.71817838 L59.485573,10.3873135 L61.7380054,10.3873135 L61.7380054,8.71817838 Z" id="Fill-14" fill="#FCEE00" mask="url(#mask-2)"></path>
                        <path d="M76.1270595,17.9658 C75.5447351,18.6823946 74.5912216,19.1849351 72.6559784,19.1849351 C71.1464108,19.1849351 69.4767892,18.8940162 68.8137081,17.3036919 C68.5223027,16.6138541 68.5223027,15.7926649 68.5223027,15.5542865 L68.5223027,14.150773 L71.4358703,14.150773 L71.4358703,15.2103405 C71.4358703,15.6618 71.4636,15.8194216 71.5176,16.0578 C71.5691676,16.3759622 71.8347892,16.9320162 72.6559784,16.9320162 C72.7615459,16.9320162 73.1054919,16.9320162 73.3720865,16.7466649 C73.6357622,16.5870973 73.9008973,16.1643405 73.9008973,15.4477459 C73.9008973,14.4694216 73.7427892,14.2573135 72.9731676,13.6993135 L70.3242486,11.8190432 C69.052573,10.9180703 68.7081405,10.1226649 68.7081405,8.56007027 C68.7339243,5.85617838 70.3763027,5.08752973 72.8155459,5.08752973 C74.8023568,5.08752973 75.8891676,5.77688108 76.3119243,6.54455676 C76.6291135,7.07531351 76.6836,7.63136757 76.6836,8.18839459 L76.6836,9.69893514 L73.9539243,9.69893514 L73.9539243,8.71915135 C73.9539243,8.50558378 74.0074378,7.23488108 72.7883027,7.23488108 C72.6559784,7.23488108 72.4711135,7.23488108 72.2059784,7.36671892 C71.8075459,7.6050973 71.7014919,8.02931351 71.7014919,8.45352973 C71.7014919,9.24844865 71.9928973,9.5130973 72.6024649,9.93731351 L75.5174919,11.9776378 C75.7836,12.1639622 76.1012757,12.5069351 76.3396541,12.798827 C76.6568432,13.2502865 76.8426811,13.8593676 76.8426811,14.9982324 C76.8426811,16.0329892 76.8426811,17.0915838 76.1270595,17.9658" id="Fill-15" fill="#FFFFFF" mask="url(#mask-2)"></path>
                        <path d="M86.4615892,17.8080811 C85.2682378,19.2378649 83.3884541,19.1848378 82.8576973,19.1848378 C82.221373,19.1848378 81.7436432,19.1050541 81.5052649,19.053973 C80.9769405,18.9474324 79.5179676,18.495973 78.9876973,16.9071081 C78.8295892,16.4561351 78.7488324,16.0333784 78.7488324,15.0784054 L78.7488324,9.01045946 C78.7488324,8.08175676 78.8548865,7.71154054 79.0149405,7.28781081 C79.6512649,5.59143243 81.4269405,5.08791892 83.0425622,5.08791892 C83.4672649,5.08791892 86.0636432,5.06116216 86.9111027,7.07618919 C87.1232108,7.55245946 87.2302378,7.97618919 87.2302378,8.87813514 L87.2302378,15.4233243 C87.2302378,16.3763514 87.0969405,17.0652162 86.4615892,17.8080811 L86.4615892,17.8080811 Z M84.1016432,8.6922973 C84.1016432,7.84483784 84.0233189,7.47218919 83.5986162,7.20851351 C83.3884541,7.04943243 83.1228324,7.04943243 83.0177514,7.04943243 C82.6728324,7.04943243 82.4865081,7.15548649 82.3794811,7.23527027 C81.8769405,7.60548649 81.9036973,8.16202703 81.9036973,8.71905405 L81.9036973,15.6086757 C81.9036973,15.8460811 81.8769405,17.0117027 82.9900216,17.0117027 C84.1824,17.0117027 84.1016432,15.7945135 84.1016432,15.5819189 L84.1016432,8.6922973 Z" id="Fill-16" fill="#FFFFFF" mask="url(#mask-2)"></path>
                        <polygon id="Fill-17" fill="#FFFFFF" mask="url(#mask-2)" points="89.4016216 18.9205297 92.5817838 18.9205297 92.5817838 0.212205405 89.4016216 0.212205405"></polygon>
                        <path d="M94.913027,3.39139459 L98.0931892,3.39139459 L98.0931892,0.212205405 L94.913027,0.212205405 L94.913027,3.39139459 Z M94.913027,18.9210162 L98.0931892,18.9210162 L98.0931892,5.35436757 L94.913027,5.35436757 L94.913027,18.9210162 Z" id="Fill-18" fill="#FFFFFF" mask="url(#mask-2)"></path>
                        <path d="M105.935741,18.9207243 L105.962497,17.5940757 C105.645308,18.0465081 104.954497,19.2116432 103.311632,19.1848865 C102.358605,19.1848865 101.749524,18.8132108 101.430876,18.6025622 C100.424335,17.8611568 100.291038,16.9849946 100.291038,14.8405622 L100.291038,8.66461622 C100.291038,8.18785946 100.158714,6.43991351 101.668768,5.51218378 C101.908119,5.38034595 102.464173,5.0616973 103.232822,5.0616973 C104.39893,5.0616973 105.193849,5.72380541 105.962497,6.43991351 L105.962497,0.2124 L109.115903,0.2124 L109.115903,18.9207243 L105.935741,18.9207243 Z M105.962497,9.06304865 C105.962497,8.45250811 105.935741,8.02926486 105.3792,7.7111027 C105.035741,7.52575135 104.770605,7.49899459 104.610065,7.49899459 C104.478714,7.49899459 104.186335,7.52575135 103.922173,7.7111027 C103.391903,8.08277838 103.419632,8.63834595 103.419632,9.22164324 L103.419632,14.9981838 C103.419632,15.7926162 103.49747,16.0845081 103.869146,16.3238595 C103.975686,16.4026703 104.292876,16.5359676 104.636822,16.5359676 C105.088281,16.5359676 105.485254,16.3506162 105.724119,16.0066703 C105.909957,15.7415351 105.962497,15.4764 105.962497,14.8921297 L105.962497,9.06304865 Z" id="Fill-19" fill="#FFFFFF" mask="url(#mask-2)"></path>
                        <path d="M116.931114,18.9207243 C116.666465,18.6288324 116.613924,18.3904541 116.561384,17.7283459 C116.40133,17.8859676 116.269978,18.0732649 116.084627,18.2308865 C115.739708,18.5758054 115.0776,19.2116432 113.831222,19.2116432 C113.566086,19.2116432 112.824681,19.1848865 112.188357,18.7071568 C111.075762,17.8859676 111.156032,16.2708324 111.156032,15.0784541 C111.156032,14.0976973 111.102519,13.0896973 111.791384,12.2962378 C112.162573,11.8447784 112.692843,11.553373 113.222627,11.2887243 L116.508357,9.64683243 L116.508357,8.85045405 C116.508357,8.05602162 116.428086,7.65807568 116.084627,7.42018378 C115.951816,7.33991351 115.739708,7.23434595 115.394789,7.23434595 C115.262465,7.23434595 114.652897,7.23434595 114.415492,7.76364324 C114.307978,8.00396757 114.307978,8.45250811 114.307978,9.03629189 L114.307978,9.53980541 L111.420681,9.53980541 L111.420681,8.00396757 C111.420681,7.68483243 111.472735,6.7571027 112.188357,6.06775135 C112.745384,5.51218378 113.857978,5.0616973 115.605924,5.0616973 C116.004357,5.0616973 118.36333,5.03542703 119.31587,6.7571027 C119.635005,7.31364324 119.635005,7.81812973 119.635005,8.05602162 L119.635005,15.6082378 C119.635005,16.3506162 119.556195,18.0187784 120.031978,18.6804 C120.058735,18.7621297 120.110789,18.8132108 120.244573,18.9207243 L116.931114,18.9207243 Z M116.4816,12.0836432 L114.944303,13.0896973 C114.837762,13.1704541 114.706411,13.2765081 114.679654,13.3013189 C114.282681,13.6729946 114.229168,14.2022919 114.229168,15.2633189 C114.229168,16.2708324 114.362465,16.8541297 114.996357,16.827373 C115.44733,16.827373 115.791762,16.6405622 116.137654,16.3506162 L116.4816,16.0577514 L116.4816,12.0836432 Z" id="Fill-20" fill="#FFFFFF" mask="url(#mask-2)"></path>
                        <path d="M121.967027,3.39139459 L125.146216,3.39139459 L125.146216,0.212205405 L121.967027,0.212205405 L121.967027,3.39139459 Z M121.967027,18.9210162 L125.146216,18.9210162 L125.146216,5.35436757 L121.967027,5.35436757 L121.967027,18.9210162 Z" id="Fill-21" fill="#FFFFFF" mask="url(#mask-2)"></path>
                        <path d="M133.677827,8.24176216 C133.439449,8.13522162 133.1748,8.02916757 132.64453,8.02916757 C132.458692,8.02916757 131.927935,8.02916757 131.452151,8.34684324 C130.577449,8.95641081 130.603719,10.0159784 130.603719,10.9174378 L130.603719,18.920627 L127.477557,18.920627 L127.477557,5.35349189 L130.629989,5.35349189 L130.603719,7.07516757 C130.68253,6.94284324 130.815827,6.62468108 131.081449,6.28073514 C131.955665,5.11414054 133.148043,5.08787027 133.704584,5.11414054 L133.677827,8.24176216 Z" id="Fill-22" fill="#FFFFFF" mask="url(#mask-2)"></path>
                        <path d="M138.208232,12.8253892 L138.208232,15.0515514 C138.208232,15.5278216 138.208232,15.7146324 138.288016,15.9525243 C138.498665,16.6404162 139.109205,16.7202 139.373854,16.7202 C139.877854,16.7202 140.222773,16.4560378 140.381368,15.9787946 C140.513692,15.6085784 140.488395,14.6268486 140.488395,14.4424703 L143.5338,14.4424703 L143.5338,15.5278216 C143.5338,16.0045784 143.5338,16.2974432 143.402449,16.7469568 C142.872178,18.6534973 141.176773,19.1847405 139.373854,19.1847405 C136.592124,19.1847405 135.664881,17.8079838 135.293692,16.5888486 C135.108341,15.9257676 135.054827,14.9717676 135.054827,14.8141459 L135.054827,9.08965946 C135.054827,8.87706486 135.081584,7.97706486 135.400719,7.26095676 C136.062341,5.67111892 137.810286,5.08782162 139.401097,5.08782162 C141.59953,5.08782162 142.818665,6.20187568 143.216611,7.02209189 C143.454503,7.49884865 143.587314,7.92355135 143.587314,8.95782162 L143.587314,12.8253892 L138.208232,12.8253892 Z M140.460665,8.93057838 C140.460665,8.6382 140.513692,7.57911892 139.373854,7.57911892 C138.234016,7.57911892 138.208232,8.58663243 138.208232,8.93057838 L138.208232,10.5997135 L140.460665,10.5997135 L140.460665,8.93057838 Z" id="Fill-23" fill="#FFFFFF" mask="url(#mask-2)"></path>
                    </g>
                    <g id="logo__symbol" transform="translate(25.000000, 0.000000)">
                        <g id="Group-3" transform="translate(0.494792, 76.718932)">
                            <mask id="mask-4" fill="white">
                                <use xlink:href="#path-3"></use>
                            </mask>
                            <g id="Clip-2"></g>
                            <path d="M19.5333854,15.0495833 L13.6750521,20.5279167 C13.2604167,20.9277083 12.5345573,20.8455729 12.0526302,20.3453385 L0.420078125,8.25213542 C-0.0603645833,7.75289063 -0.114791667,7.02208333 0.299348958,6.62278646 L6.51046875,0.306276042 C6.51046875,0.306276042 9.77708333,11.5335938 19.5333854,15.0495833" id="Fill-1" fill="#B7B9B4" mask="url(#mask-4)"></path>
                        </g>
                        <g id="Group-6" transform="translate(0.000000, 87.109557)">
                            <mask id="mask-6" fill="white">
                                <use xlink:href="#path-5"></use>
                            </mask>
                            <g id="Clip-5"></g>
                            <path d="M0.644565104,0.106776042 L9.36823698,9.17680208 C7.86753385,10.621099 4.54104948,9.1639375 2.50597135,7.04721875 C0.469408854,4.93148958 -0.856138021,1.55008333 0.644565104,0.106776042" id="Fill-4" fill="#FFFFFF" mask="url(#mask-6)"></path>
                        </g>
                        <path d="M59.2162708,51.8020156 C58.4904115,52.4427708 58.1321823,53.3066771 58.1331719,54.0830052 C58.1356458,54.6539948 58.3152552,55.1636302 58.6739792,55.5718333 L60.7877292,57.9592031 C61.215724,58.4431094 61.821349,58.6959479 62.521974,58.6994115 C63.2131979,58.6994115 63.9672604,58.4371719 64.5921823,57.8820156 L75.311349,48.4067552 C76.0391875,47.763526 76.3979115,46.901599 76.3969219,46.1267552 C76.3949427,45.5567552 76.2143437,45.0486042 75.852651,44.6364427 L73.7428594,42.2490729 C73.3128854,41.7656615 72.7067656,41.5138125 72.0071302,41.5083698 C71.3173906,41.5083698 70.5628333,41.7725885 69.9374167,42.3262604 L59.2162708,51.8020156 Z" id="Fill-7" fill="#FCEE00"></path>
                        <path d="M38.1917318,33.8902109 C38.6226953,34.3563047 39.2110026,34.5997422 39.934388,34.6046901 C40.6656901,34.6066693 41.5127734,34.3305755 42.2801953,33.7363307 L52.7648307,24.1433099 C53.3189974,23.5287786 53.6247786,22.6945599 53.6223047,21.9360443 C53.6203255,21.2997422 53.424388,20.7435964 53.0354818,20.3170859 L50.8821484,17.9648464 C50.455638,17.4992474 49.8628776,17.2587786 49.1815495,17.2548203 C48.4794401,17.2538307 47.7090495,17.5299245 47.0781901,18.1063568 L36.5198307,27.7632057 C35.3427214,28.8482839 35.1443099,29.5439609 35.1448047,29.9422682 C35.1457943,30.2010443 35.2234766,30.4380495 35.3857682,30.7116693 C35.5460807,30.9823203 35.7880339,31.2618776 36.0438411,31.5399505 L37.3401953,32.9575286 C37.3436589,32.9624766 37.3471224,32.9649505 37.3500911,32.9698984 L37.3560286,32.9758359 L37.1561328,33.1589089 L36.5460547,33.754638 L37.3768099,32.9966172 L38.1917318,33.8902109 Z" id="Fill-9" fill="#FCEE00"></path>
                        <path d="M43.8134557,38.1077656 C43.8154349,38.67925 43.9940547,39.1883906 44.3562422,39.5980781 L46.4660339,41.9854479 C46.8935339,42.4683646 47.5026224,42.7221927 48.2022578,42.7251615 C48.8939766,42.7251615 49.6475443,42.4624271 50.2709818,41.9082604 L60.9901484,32.4300312 C61.7194714,31.7877917 62.0767109,30.9258646 62.0747318,30.153 C62.0732474,29.583 61.8941328,29.0743542 61.5324401,28.6641719 L59.4226484,26.2763073 C58.9916849,25.792401 58.3850703,25.5400573 57.6834557,25.5346146 C56.9952005,25.5346146 56.241138,25.7988333 55.6162161,26.350526 L44.8960599,35.8272708 C44.1692109,36.4695104 43.8109818,37.3319323 43.8134557,38.1077656" id="Fill-11" fill="#FCEE00"></path>
                        <path d="M58.7263281,74.3570937 C59.3042448,73.879125 60.0157552,73.3858177 60.68125,72.8455052 C61.3447656,72.311625 61.9434635,71.7332135 62.2571615,71.2260521 C62.4684375,70.884151 62.5515625,70.6065729 62.5515625,70.3661042 C62.5505729,70.2087604 62.521875,70.0504271 62.4253906,69.8450885 C62.0844792,69.1964167 61.7366406,68.977224 60.9217188,68.8421458 C59.531849,68.6640208 58.208776,68.3933698 56.9223177,68.2112865 C56.3735938,68.134099 55.8486198,68.0425625 55.4329948,68.0440469 C55.0678385,68.0440469 54.8372656,68.107875 54.6799219,68.2073281 L37.8990625,81.9946979 L37.0084375,82.7250104 L36.0896094,81.6028229 L34.4063281,79.8393854 L34.3939583,79.8507656 C34.3365625,79.7824844 34.261849,79.6983698 34.1816927,79.6023802 C27.4520313,71.7821979 20.9192969,64.3143073 13.6809896,56.5431094 L13.6636719,56.5257917 L13.6448698,56.5020417 C12.9744271,55.7054271 12.2614323,54.7737344 11.7503125,53.6683698 C9.67614583,56.7984219 8.77018229,60.56725 8.16010417,63.4855313 C7.78802083,65.2361042 7.61236979,66.9723281 7.61236979,68.6763906 C7.61039063,80.0669896 15.5221094,89.9885521 26.2234635,91.8712344 C27.0819271,92.0221458 27.979974,92.0943854 28.9022656,92.0943854 C34.273724,92.1121979 40.4516927,89.5892552 44.0908854,86.8184219 L44.0928646,86.8199063 L45.9567448,85.2286563 C50.1223958,81.4741771 54.4463802,77.9230573 58.7263281,74.3570937" id="Fill-13" fill="#FCEE00"></path>
                        <path d="M53.210638,66.5104896 L53.2047005,66.5030677 C53.2828776,66.4392396 53.3541276,66.3912448 53.4224089,66.3462187 C54.0849349,65.9078333 54.8098047,65.799474 55.4282943,65.799474 L55.4327474,65.799474 C56.131888,65.8014531 56.7523568,65.9246562 57.2347786,65.9899688 C58.6127734,66.1839271 59.9264453,66.452599 61.2084505,66.6158802 C62.5339974,66.7568958 63.829362,67.5248125 64.4488411,68.872625 C64.6808984,69.357026 64.7986589,69.8711146 64.7976693,70.3659062 C64.7976693,71.1427292 64.5220703,71.8384062 64.1574089,72.4183021 C63.7897786,73.0021562 63.3226953,73.501401 62.8353255,73.9521563 C61.8640495,74.8452552 60.7705599,75.572599 60.1624609,76.083224 C55.8716276,79.6571042 51.5669401,83.1923906 47.4606641,86.896401 C47.4027734,86.9498385 47.358737,86.9879375 47.3339974,87.0136667 L47.3339974,87.0126771 L47.3300391,87.0106979 L46.4671224,87.7454635 C49.8425911,90.1991354 54.2442578,91.2921302 57.4089453,91.8695521 C58.9497266,92.1550469 60.4771484,92.2916094 61.9773568,92.2916094 C73.6336589,92.2935885 83.684362,84.0300729 85.320638,73.0803333 C85.4502734,72.2193958 85.5126172,71.3470781 85.5126172,70.4673385 C85.5274609,64.215151 82.3033984,57.591375 77.841862,53.1372604 L77.8161328,53.1629896 L76.9903255,52.3292656 L76.9779557,52.3203594 L75.7127734,51.0462708 L66.0806641,59.562625 C65.0485286,60.4760104 63.7744401,60.9440833 62.5216276,60.9440833 C61.2613932,60.9460625 59.993737,60.455724 59.1050911,59.4468437 L56.9903516,57.0579896 C56.2447005,56.213875 55.8864714,55.1416615 55.8884505,54.0833021 C55.8894401,53.6780677 55.9448568,53.2733281 56.0433203,52.8755156 C55.8434245,52.8997604 55.6440234,52.9155937 55.4446224,52.9155937 C54.1829036,52.9185625 52.9147526,52.42575 52.025612,51.4183542 L49.9163151,49.0324687 C49.1672005,48.186375 48.8079818,47.115151 48.8104557,46.0553073 C48.8104557,45.6708542 48.8589453,45.2868958 48.9480078,44.9098646 C48.6996224,44.946974 48.4517318,44.9697344 48.2013672,44.9697344 C46.9421224,44.9736927 45.6729818,44.4808802 44.7823568,43.4739792 L42.6740495,41.0856198 C41.9249349,40.2405156 41.5667057,39.1678073 41.5676953,38.1074687 C41.5676953,37.5706198 41.6582422,37.0322865 41.8314193,36.5127552 C41.2084766,36.7334323 40.5672266,36.848224 39.9338932,36.8502031 C38.678112,36.8536667 37.4262891,36.3806458 36.5346745,35.4044219 L35.7360807,34.530125 C35.7350911,34.5271562 35.733112,34.5261667 35.7281641,34.5217135 C34.9068099,33.6860104 34.1507682,33.0502031 33.512487,32.6499167 C32.8727214,32.2441875 32.3680339,32.0977292 32.0741276,32.1041615 C31.8321745,32.1130677 31.7030339,32.155125 31.4892839,32.3347344 L29.1217057,34.4672865 C28.9450651,34.6231458 28.7867318,34.9348646 28.7812891,35.572651 C28.7614974,36.8299167 29.558112,38.9679115 30.9113672,40.9495521 L30.9430339,40.992599 L31.2809766,41.6160365 L44.8273828,56.6690833 L44.8560807,56.6433542 L45.0920964,56.9065833 L45.0633984,56.9318177 L45.4315234,57.3410104 L45.4305339,57.3410104 L43.7630859,58.8431979 L29.5269401,43.0237187 L29.330013,42.8079896 C28.4388932,41.8179115 27.4631641,41.0366354 26.5542318,40.5195781 C25.6477734,39.9980677 24.805638,39.7580937 24.2524609,39.7640312 C23.8447526,39.7684844 23.6290234,39.8649688 23.4820703,39.995099 L21.112513,42.1286406 C20.9418099,42.2815312 20.7928776,42.5680156 20.7879297,43.1404896 C20.770612,44.2042917 21.4499609,45.9810885 22.7507682,47.5990573 C22.7601693,47.6074687 22.7695703,47.6218177 22.7799609,47.6327031 C22.8190495,47.67575 22.8576432,47.7212708 22.8927734,47.7712448 C23.0065755,47.9048385 23.1203776,48.0369479 23.2326953,48.162625 L37.7380078,64.1612187 L36.0755078,65.668849 L21.5627734,49.6643177 C21.4128516,49.4960885 21.2703516,49.3303333 21.1327995,49.1670521 L21.0763932,49.0992656 C20.4920443,48.5055156 19.8592057,47.9152292 19.2327995,47.4981198 C18.5851172,47.0631979 17.9760286,46.8321302 17.4342318,46.8336146 C17.0972786,46.8370781 16.7627995,46.9103073 16.3605339,47.1290052 L16.329362,47.1473125 L16.2927474,47.1621562 C15.5035547,47.5273125 14.7089193,48.0567396 14.1606901,48.6747344 C13.6065234,49.2996562 13.2972786,49.9572344 13.2948047,50.7305937 C13.2948047,50.7498906 13.2948047,50.7746302 13.2957943,50.8072865 C13.2992578,50.9092135 13.3081641,51.0116354 13.3195443,51.1125729 C13.4734245,52.5558802 14.3323828,53.8408542 15.3442318,55.03825 C22.5934245,62.8213229 29.1330859,70.2966354 35.861263,78.1153333 L37.2798307,79.6006979 L53.210638,66.5104896 Z" id="Fill-15" fill="#FFFFFF"></path>
                        <path d="M68.2327109,40.3754453 C68.9605495,39.7337005 69.3187786,38.8712786 69.3167995,38.0969297 C69.3143255,37.5274245 69.1347161,37.0197682 68.7730234,36.6095859 L66.6637266,34.2227109 C66.2342474,33.7383099 65.6266432,33.4844818 64.9270078,33.4825026 C64.2367734,33.4805234 63.4846901,33.7442474 62.8587786,34.2974245 L52.1406016,43.7756536 C51.4107839,44.4164089 51.0525547,45.2793255 51.0555234,46.0541693 C51.056513,46.6256536 51.2361224,47.1338047 51.5978151,47.5434922 L53.7081016,49.930862 C54.1356016,50.4142734 54.7432057,50.6685964 55.4453151,50.6700807 C56.1355495,50.6700807 56.889612,50.4088307 57.5135443,49.8546641 L68.2307318,40.3764349 L68.4622943,40.6371901 L68.4622943,40.6362005 L68.2327109,40.3754453 Z" id="Fill-17" fill="#FCEE00"></path>
                        <path d="M84.153474,48.6395052 C83.6626406,48.191224 83.4488906,47.5079167 83.5869375,46.861224 C83.697276,46.3713802 83.987224,45.953776 84.4063125,45.683125 C84.8258958,45.4159375 85.3261302,45.326875 85.8149844,45.4327604 L93.517901,47.108125 C94.496599,47.3159375 95.1581354,48.3634115 94.947849,49.3292448 C94.7261823,50.3391146 93.7291771,50.979375 92.7237604,50.7596875 L85.0173802,49.0853125 C84.694776,49.0145573 84.3969115,48.8611719 84.153474,48.6395052" id="Fill-19" fill="#FFFFFF"></path>
                        <path d="M84.3530234,33.0883516 C84.1095859,32.8647057 83.928987,32.5806953 83.8334922,32.2650182 C83.6870339,31.8093151 83.727112,31.3006693 83.9557057,30.8563464 C84.1862786,30.4110339 84.5732057,30.0815026 85.0491953,29.9296016 L92.5606276,27.5165026 C93.5086484,27.2136901 94.5981797,27.7782474 94.9118776,28.7218151 C95.2226068,29.7034818 94.6803151,30.757388 93.7045859,31.0755391 L86.1872161,33.488638 C85.5514089,33.692987 84.8478151,33.5410859 84.3530234,33.0883516" id="Fill-21" fill="#FFFFFF"></path>
                        <path d="M45.8310677,12.5211484 C45.5935677,12.3024505 45.4134635,12.0189349 45.3135156,11.7042474 L42.9622656,4.16807552 C42.8123438,3.6940651 42.8583594,3.18789323 43.0904167,2.74604427 C43.322474,2.30370052 43.714349,1.97614844 44.1898438,1.8296901 C45.1319271,1.5333099 46.231849,2.0968776 46.5297135,3.05677344 L48.8819531,10.5830495 C49.188724,11.5676849 48.6360417,12.6176328 47.6509115,12.9234141 C47.025,13.1247943 46.3233854,12.9714089 45.8310677,12.5211484" id="Fill-23" fill="#FFFFFF"></path>
                        <path d="M61.3036484,10.9459297 C60.8118255,10.4956693 60.5970859,9.8108776 60.7405755,9.15923698 L62.4857057,1.4568151 C62.7142995,0.450408854 63.7182318,-0.180450521 64.7206797,0.0466588542 C65.6840391,0.275252604 66.3500286,1.31283073 66.1298464,2.2826224 L64.3886745,9.9771276 C64.1576068,10.9820495 63.1551589,11.6158776 62.1556797,11.3897578 C61.8350547,11.3170234 61.542138,11.163638 61.3036484,10.9459297" id="Fill-25" fill="#FFFFFF"></path>
                        <path d="M75.5071875,19.5625286 C74.7452083,18.8668516 74.6927604,17.6813307 75.3909115,16.9208359 L80.7198177,11.097138 C81.4169792,10.3361484 82.6020052,10.2841953 83.3634896,10.9803672 C84.1234896,11.6765391 84.1759375,12.8615651 83.4797656,13.6230495 L78.1498698,19.4457578 C77.4517187,20.2072422 76.2676823,20.2601849 75.5071875,19.5625286" id="Fill-27" fill="#FFFFFF"></path>
                    </g>
                </g>
            </g>
        </g>
    </g>
</svg>